<svg width="405" height="202" viewBox="0 0 405 202" fill="none" xmlns="http://www.w3.org/2000/svg">
<path d="M157.847 44.068C158.526 44.0585 159.19 43.8657 159.768 43.5091C160.347 43.1519 160.817 42.6444 161.129 42.0411C161.442 41.4379 161.585 40.7618 161.542 40.0837C161.5 39.4056 161.274 38.7513 160.89 38.1914C150.161 22.7533 134.774 11.1524 116.98 5.08335C99.186 -0.98512 79.9179 -1.20052 61.992 4.46515C44.0655 10.1302 28.4219 21.3825 17.3481 36.5751C6.27424 51.7682 0.351549 70.105 0.44458 88.9057L0.981235 195.281C0.991052 196.271 1.39053 197.218 2.09352 197.915C2.79771 198.611 3.7484 199.001 4.73755 199L23.0289 198.908C40.5435 198.804 57.3006 191.753 69.6182 179.301C81.9371 166.85 88.8082 150.018 88.7241 132.504L88.5575 99.4753C88.4838 84.8761 94.2116 70.8446 104.481 60.4679C114.751 50.0912 128.722 44.2192 143.322 44.1413L157.847 44.068Z" fill="url(#paint0_linear_50_53)"/>
<path d="M157.848 110.432V164H141.432V156.704C139.768 159.072 137.496 160.992 134.616 162.464C131.8 163.872 128.664 164.576 125.208 164.576C121.112 164.576 117.496 163.68 114.36 161.888C111.224 160.032 108.792 157.376 107.064 153.92C105.336 150.464 104.472 146.4 104.472 141.728V110.432H120.792V139.52C120.792 143.104 121.72 145.888 123.576 147.872C125.432 149.856 127.928 150.848 131.064 150.848C134.264 150.848 136.792 149.856 138.648 147.872C140.504 145.888 141.432 143.104 141.432 139.52V110.432H157.848ZM186.056 119.36C187.976 116.416 190.376 114.112 193.256 112.448C196.136 110.72 199.336 109.856 202.856 109.856V127.232H198.344C194.248 127.232 191.176 128.128 189.128 129.92C187.08 131.648 186.056 134.72 186.056 139.136V164H169.64V110.432H186.056V119.36ZM227.118 119.36C229.038 116.416 231.438 114.112 234.318 112.448C237.198 110.72 240.398 109.856 243.918 109.856V127.232H239.406C235.31 127.232 232.238 128.128 230.19 129.92C228.142 131.648 227.118 134.72 227.118 139.136V164H210.702V110.432H227.118V119.36ZM268.181 118.016C269.781 115.52 271.989 113.504 274.805 111.968C277.621 110.432 280.917 109.664 284.693 109.664C289.109 109.664 293.109 110.784 296.693 113.024C300.277 115.264 303.093 118.464 305.141 122.624C307.253 126.784 308.309 131.616 308.309 137.12C308.309 142.624 307.253 147.488 305.141 151.712C303.093 155.872 300.277 159.104 296.693 161.408C293.109 163.648 289.109 164.768 284.693 164.768C280.981 164.768 277.685 164 274.805 162.464C271.989 160.928 269.781 158.944 268.181 156.512V189.536H251.765V110.432H268.181V118.016ZM291.605 137.12C291.605 133.024 290.453 129.824 288.149 127.52C285.909 125.152 283.125 123.968 279.797 123.968C276.533 123.968 273.749 125.152 271.445 127.52C269.205 129.888 268.085 133.12 268.085 137.216C268.085 141.312 269.205 144.544 271.445 146.912C273.749 149.28 276.533 150.464 279.797 150.464C283.061 150.464 285.845 149.28 288.149 146.912C290.453 144.48 291.605 141.216 291.605 137.12ZM313.657 137.12C313.657 131.616 314.681 126.784 316.729 122.624C318.841 118.464 321.689 115.264 325.273 113.024C328.857 110.784 332.857 109.664 337.273 109.664C341.049 109.664 344.345 110.432 347.161 111.968C350.041 113.504 352.249 115.52 353.785 118.016V110.432H370.201V164H353.785V156.416C352.185 158.912 349.945 160.928 347.065 162.464C344.249 164 340.953 164.768 337.177 164.768C332.825 164.768 328.857 163.648 325.273 161.408C321.689 159.104 318.841 155.872 316.729 151.712C314.681 147.488 313.657 142.624 313.657 137.12ZM353.785 137.216C353.785 133.12 352.633 129.888 350.329 127.52C348.089 125.152 345.337 123.968 342.073 123.968C338.809 123.968 336.025 125.152 333.721 127.52C331.481 129.824 330.361 133.024 330.361 137.12C330.361 141.216 331.481 144.48 333.721 146.912C336.025 149.28 338.809 150.464 342.073 150.464C345.337 150.464 348.089 149.28 350.329 146.912C352.633 144.544 353.785 141.312 353.785 137.216ZM398.493 92.96V164H382.077V92.96H398.493Z" fill="url(#paint1_linear_50_53)"/>
<defs>
<linearGradient id="paint0_linear_50_53" x1="103.941" y1="29.2127" x2="-37.6134" y2="307.512" gradientUnits="userSpaceOnUse">
<stop stop-color="#C54F0C"/>
<stop offset="0.634615" stop-color="#FF823C"/>
</linearGradient>
<linearGradient id="paint1_linear_50_53" x1="251" y1="30" x2="405" y2="290" gradientUnits="userSpaceOnUse">
<stop stop-color="#FF823C"/>
<stop offset="1" stop-color="#C54F0C"/>
</linearGradient>
</defs>
</svg>
